Coordinates
version=1
nRows=9
nColumns=42
inDegrees=yes

Units are S.I. units (second, meters, Newtons, ...)
If the header above contains a line with 'inDegrees', this indicates whether rotational values are in degrees (yes) or radians (no).

endheader
time	pelvis_tilt	pelvis_list	pelvis_rotation	pelvis_tx	pelvis_ty	pelvis_tz	hip_flexion_r	hip_adduction_r	hip_rotation_r	knee_angle_r	knee_adduction_r	knee_angle_r_beta	ankle_angle_r	subtalar_angle_r	mtp_angle_r	hip_flexion_l	hip_adduction_l	hip_rotation_l	knee_angle_l	knee_adduction_l	knee_angle_l_beta	ankle_angle_l	subtalar_angle_l	mtp_angle_l	lumbar_extension	lumbar_bending	lumbar_rotation	arm_flex_r	arm_add_r	arm_rot_r	elbow_flex_r	pro_sup_r	wrist_flex_r	wrist_dev_r	arm_flex_l	arm_add_l	arm_rot_l	elbow_flex_l	pro_sup_l	wrist_flex_l	wrist_dev_l
      2.66000000	     11.96402022	      3.31213675	      4.99560542	      0.82035326	      0.86693311	      0.16703863	     15.82758488	     -6.90576119	    -31.17656161	     17.34856404	      2.31431600	      0.30278956	      8.93603012	     36.97549953	     -7.50081268	    -29.69540465	      5.12407353	    -10.43096727	     14.91921332	     -5.36518325	      0.26038939	     29.23447064	     33.97265067	     -7.50081268	    -36.73597135	      1.58388224	     -6.74831498	     -0.75268775	    -11.54880299	     -1.21808374	     42.27678936	     90.00000001	      0.00000000	      0.00000000	     22.09738993	    -17.38087082	     -0.03496640	     54.76253883	     90.00000001	      0.00000000	      0.00000000
      2.67000000	     12.20438646	      2.79608075	      5.40639750	      0.83512230	      0.86638186	      0.16782534	     15.26165893	     -5.90769783	    -32.45456749	     17.81329519	      1.37301420	      0.31090065	      8.17981707	     37.62186969	     -7.50079421	    -29.71574336	      3.85516594	    -11.32563155	     17.33313453	     -5.40671788	      0.30252027	     28.06725065	     34.14349410	     -7.50079421	    -36.74106734	      2.35793037	     -6.70821806	     -0.71822280	    -11.51172017	     -1.60659611	     41.96916585	     90.00000001	      0.00000000	      0.00000000	     21.82773087	    -17.30444200	     -0.19694485	     55.53651496	     90.00000001	      0.00000000	      0.00000000
      2.68000000	     12.18847857	      2.64140222	      5.47248263	      0.84964274	      0.86572011	      0.16852815	     15.22063486	     -5.39501397	    -32.20608877	     18.83451877	      0.64805060	      0.32872437	      7.73876523	     37.59048717	     -7.50078503	    -29.71421051	      3.34456196	    -11.37409266	     19.17988977	     -5.55170613	      0.33475223	     26.99826020	     34.01328690	     -7.50078503	    -36.50848043	      2.63813776	     -6.53741463	     -0.75710013	    -11.59721621	     -1.70056976	     41.77976004	     90.00000001	      0.00000000	      0.00000000	     21.64200297	    -17.13159447	     -0.29826530	     55.79447873	     90.00000001	      0.00000000	      0.00000000
      2.69000000	     12.29941168	      2.16341772	      5.63665139	      0.86465284	      0.86546104	      0.16929952	     15.12938613	     -4.59412482	    -32.72256803	     20.24857173	     -0.46385208	      0.35340425	      7.53291688	     37.90937222	     -7.50076672	    -29.71353826	      2.41963705	    -11.78969183	     21.20607060	     -5.82621383	      0.37011575	     25.05566549	     34.03156462	     -7.50076672	    -36.33661921	      3.30650305	     -6.32846820	     -0.75914243	    -11.72854848	     -1.80163881	     41.57821689	     90.00000001	      0.00000000	      0.00000000	     21.16063181	    -16.91600543	     -0.54108966	     56.18614058	     90.00000001	      0.00000000	      0.00000000
      2.70000000	     12.47095811	      1.83368341	      5.66969960	      0.87941480	      0.86563338	      0.17014928	     15.05003073	     -4.03311939	    -32.27461889	     21.96662272	     -1.30711678	      0.38338989	      7.37406104	     37.85463198	     -7.50076118	    -29.70058891	      1.71475419	    -11.80837090	     23.32456878	     -6.02276624	      0.40709052	     23.38153095	     33.87155578	     -7.50076118	    -36.29708360	      3.76962559	     -6.05119202	     -0.68920667	    -11.86303388	     -1.81778475	     41.38174639	     90.00000001	      0.00000000	      0.00000000	     20.78085009	    -16.70364345	     -0.67281072	     56.33903770	     90.00000001	      0.00000000	      0.00000000
      2.71000000	     12.72055607	      1.30675573	      5.71729174	      0.89465263	      0.86613174	      0.17105013	     14.88847559	     -3.31107129	    -32.21208523	     23.91097076	     -2.26420819	      0.41732517	      8.00062424	     37.61793477	     -7.50075038	    -29.67227243	      0.80471956	    -12.07964953	     25.52306545	     -6.37711962	      0.44546153	     20.37572558	     33.44960805	     -7.50075038	    -36.27472000	      4.44816621	     -5.73518849	     -0.64129426	    -12.08347577	     -1.73027293	     41.26872028	     90.00000001	      0.00000000	      0.00000000	     20.10760606	    -16.44756888	     -0.92510997	     56.62448977	     90.00000001	      0.00000000	      0.00000000
      2.72000000	     13.09149203	      0.81141986	      5.76277218	      0.90976360	      0.86714528	      0.17201397	     14.44925586	     -2.67572267	    -31.62557486	     25.75467581	     -2.80012423	      0.44950389	      8.76032058	     37.23858199	     -7.50073962	    -29.63315573	     -0.07898318	    -12.09893670	     27.83612358	     -6.70485226	      0.48583201	     17.56132873	     33.01944027	     -7.50073962	    -36.41475526	      5.08647614	     -5.41897300	     -0.54611526	    -12.30729263	     -1.54785328	     41.19049277	     90.00000001	      0.00000000	      0.00000000	     19.46262691	    -16.21566806	     -1.13854653	     56.78070233	     90.00000001	      0.00000000	      0.00000000
      2.73000000	     13.57540974	      0.26570609	      5.82529541	      0.92481194	      0.86865066	      0.17304571	     13.64121187	     -1.95516728	    -30.44376484	     27.25858318	     -2.84482819	      0.47575203	      9.74126324	     36.43715152	     -7.50071994	    -29.57935720	     -1.04139096	    -12.00427782	     30.22018626	     -6.99366075	      0.52744175	     14.66907249	     32.44643537	     -7.50071994	    -36.69324692	      5.77015208	     -5.08137952	     -0.43072111	    -12.60782263	     -1.11563320	     41.21192662	     90.00000001	      0.00000000	      0.00000000	     18.77564152	    -15.96889049	     -1.35267552	     56.90877585	     90.00000001	      0.00000000	      0.00000000
      2.74000000	     14.18658664	     -0.42610746	      5.84884244	      0.93961101	      0.87066925	      0.17427468	     12.40894163	     -1.05621071	    -28.86368338	     28.28288493	     -2.27775997	      0.49362946	     10.60413807	     34.89768443	     -7.50068833	    -29.47382554	     -2.15338419	    -11.98420332	     32.72817551	     -7.30588973	      0.57121442	     12.20139882	     31.91890023	     -7.50068833	    -37.14855900	      6.55757444	     -4.63837766	     -0.22997854	    -12.95319964	     -0.57462141	     41.34416455	     90.00000001	      0.00000000	      0.00000000	     18.08760096	    -15.76759642	     -1.50974743	     56.92758718	     90.00000001	      0.00000000	      0.00000000
